<mxfile host="app.diagrams.net" modified="2023-11-02T21:08:16.803Z" agent="Mozilla/5.0 (Macintosh; Intel Mac OS X 10_15_7) AppleWebKit/605.1.15 (KHTML, like Gecko) Version/17.0 Safari/605.1.15" version="22.0.8" etag="DGINe1p4LjmM7Ac-jPMt" type="github">
  <diagram name="Page-1" id="z2xWoFkqvR4UsxQCuY01">
    <mxGraphModel>
      <root>
        <mxCell id="0" />
        <mxCell id="1" parent="0" />
      </root>
    </mxGraphModel>
  </diagram>
</mxfile>
